# xmcd CD database file
#
# Track frame offsets:
#	150
#	17820
#	26337
#	41230
#	48640
#	58252
#	74155
#	84417
#	96177
#	103625
#	116917
#	124700
#	139972
#	156595
#
# Disc length: 2303 seconds
#
# Revision: 0
# Processed by: cddbd v1.5.1PL0 Copyright (c) Steve Scherf et al.
# Submitted via: CDex 1.51
#
DISCID=d308fd0e
DTITLE=安田芙充夫 - JAZZ Vol.3
DYEAR=1900
DGENRE=Jazz
TTITLE0=My Foolish Heart
TTITLE1=Stella By Starlight
TTITLE2=Sophisticated Lady
TTITLE3=You and The Night and The Music
TTITLE4=Take Five
TTITLE5=My Funny Valentine
TTITLE6=A Child Is Born
TTITLE7=What's New?
TTITLE8=Hush-a-By
TTITLE9=I Remember Clifford
TTITLE10=I Hear A Rhapsody
TTITLE11=The Man I Love
TTITLE12=The Summer Knows
TTITLE13=Blue In Green
EXTD=
EXTT0=
EXTT1=
EXTT2=
EXTT3=
EXTT4=
EXTT5=
EXTT6=
EXTT7=
EXTT8=
EXTT9=
EXTT10=
EXTT11=
EXTT12=
EXTT13=
PLAYORDER=
